# File created by Blade
# Date/Time:  Fri Jan 16 17:52:57 2015
#---------------------------------------------------------
:version 1.10
:name HOM
:units
  mass 1.0
  length 1.000000
  angle deg
:documentation
     Acclaim Skeleton File
:root
   axis xyz
   order TX TY TZ RX RY RZ
   position 0.000000 0.000000 0.000000
   orientation 0 0 0
:bonedata
   begin
      id 1
      name Spine_dum
      direction 0.000000 1.000000 0.000000
      length 7.170412
      axis 0.0 0.0 0.0 xyz
   end
   begin
      id 2
      name LeftUpLeg_dum
      direction 1.000000 0.000000 0.000000
      length 4.318350
      axis 0.0 0.0 0.0 xyz
   end
   begin
      id 3
      name RightUpLeg_dum
      direction -1.000000 0.000000 0.000000
      length 4.318350
      axis 0.0 0.0 0.0 xyz
   end
   begin
      id 4
      name Spine
      direction 0.000000 1.000000 0.000000
      length 0.000000
      axis 0.0 0.0 0.0 xyz
      dof rx ry rz
   end
   begin
      id 5
      name Spine_dum1
      direction 0.000000 1.000000 0.000000
      length 14.276153
      axis 0.0 0.0 0.0 xyz
   end
   begin
      id 6
      name Spine_dum2
      direction 0.000000 1.000000 0.000000
      length 10.718243
      axis 0.0 0.0 0.0 xyz
   end
   begin
      id 7
      name Spine_dum3
      direction 0.000000 1.000000 0.000000
      length 10.718243
      axis 0.0 0.0 0.0 xyz
   end
   begin
      id 8
      name Head
      direction 0.000000 1.000000 0.000000
      length 4.527550
      axis 0.0 0.0 0.0 xyz
      dof rx ry rz
   end
   begin
      id 9
      name LeftShoulder
      direction 1.000000 0.000000 0.000000
      length 7.058872
      axis 0.0 0.0 -90.0 xyz
      dof rx ry rz
   end
   begin
      id 10
      name LeftArm
      direction 1.000000 0.000000 0.000000
      length 10.955525
      axis 0.0 0.0 -90.0 xyz
      dof rx ry rz
   end
   begin
      id 11
      name LeftForeArm
      direction 1.000000 0.000000 0.000000
      length 8.193716
      axis 0.0 0.0 -90.0 xyz
      dof ry rz rx
   end
   begin
      id 12
      name LeftHand
      direction 0.000000 0.000000 0.000000
      length 0.000000
      axis 0.0 0.0 -90.0 xyz
      dof rx ry rz
   end
   begin
      id 13
      name LeftHand_dum1
      direction 0.000000 0.000000 0.000000
      length 0.000000
      axis 0.0 0.0 -90.0 xyz
   end
   begin
      id 14
      name LeftHand_dum2
      direction 1.000000 0.000000 0.000000
      length 3.937000
      axis 0.0 0.0 -90.0 xyz
   end
   begin
      id 15
      name LeftHandThumb1
      direction 0.000000 0.000000 1.000000
      length 3.937000
      axis 0.0 0.0 -90.0 xyz
      dof rx rz ry
   end
   begin
      id 16
      name RightShoulder
      direction -1.000000 0.000000 0.000000
      length 7.058872
      axis 0.0 0.0 90.0 xyz
      dof rx ry rz
   end
   begin
      id 17
      name RightArm
      direction -1.000000 0.000000 0.000000
      length 10.955525
      axis 0.0 0.0 90.0 xyz
      dof rx ry rz
   end
   begin
      id 18
      name RightForeArm
      direction -1.000000 0.000000 0.000000
      length 8.193716
      axis 0.0 0.0 90.0 xyz
      dof ry rz rx
   end
   begin
      id 19
      name RightHand
      direction 0.000000 0.000000 0.000000
      length 0.000000
      axis 0.0 0.0 90.0 xyz
      dof rx ry rz
   end
   begin
      id 20
      name RightHand_dum1
      direction 0.000000 0.000000 0.000000
      length 0.000000
      axis 0.0 0.0 90.0 xyz
   end
   begin
      id 21
      name RightHand_dum2
      direction -1.000000 0.000000 0.000000
      length 3.937000
      axis 0.0 0.0 90.0 xyz
   end
   begin
      id 22
      name RightHandThumb1
      direction 0.000000 0.000000 1.000000
      length 3.937000
      axis 0.0 0.0 90.0 xyz
      dof rx rz ry
   end
   begin
      id 23
      name LeftUpLeg
      direction 0.000000 -1.000000 0.000000
      length 17.323638
      axis 0.0 0.0 0.0 xyz
      dof rx ry rz
   end
   begin
      id 24
      name LeftLeg
      direction 0.000000 -1.000000 0.000000
      length 16.270368
      axis 0.0 0.0 0.0 xyz
      dof rx ry rz
   end
   begin
      id 25
      name LeftFoot
      direction 0.000000 -0.258819 0.965926
      length 4.922846
      axis 15.0 0.0 0.0 xyz
      dof rx ry rz
   end
   begin
      id 26
      name LeftToeBase
      direction 0.000000 0.000000 1.000000
      length 2.952750
      axis 0.0 0.0 0.0 xyz
      dof rx ry rz
   end
   begin
      id 27
      name RightUpLeg
      direction 0.000000 -1.000000 0.000000
      length 17.323638
      axis 0.0 0.0 0.0 xyz
      dof rx ry rz
   end
   begin
      id 28
      name RightLeg
      direction 0.000000 -1.000000 0.000000
      length 16.270368
      axis 0.0 0.0 0.0 xyz
      dof rx ry rz
   end
   begin
      id 29
      name RightFoot
      direction 0.000000 -0.258819 0.965926
      length 4.922846
      axis 15.0 0.0 0.0 xyz
      dof rx ry rz
   end
   begin
      id 30
      name RightToeBase
      direction 0.000000 0.000000 1.000000
      length 2.952750
      axis 0.0 0.0 0.0 xyz
      dof rx ry rz
   end
:hierarchy
   begin
      root Spine_dum LeftUpLeg_dum RightUpLeg_dum
      Spine_dum Spine
      LeftUpLeg_dum LeftUpLeg
      RightUpLeg_dum RightUpLeg
      Spine Spine_dum1 Spine_dum2 Spine_dum3
      Spine_dum1 Head
      Spine_dum2 LeftShoulder
      Spine_dum3 RightShoulder
      LeftShoulder LeftArm
      LeftArm LeftForeArm
      LeftForeArm LeftHand
      LeftHand LeftHand_dum1 LeftHand_dum2
      LeftHand_dum1 LeftHandThumb1
      RightShoulder RightArm
      RightArm RightForeArm
      RightForeArm RightHand
      RightHand RightHand_dum1 RightHand_dum2
      RightHand_dum1 RightHandThumb1
      LeftUpLeg LeftLeg
      LeftLeg LeftFoot
      LeftFoot LeftToeBase
      RightUpLeg RightLeg
      RightLeg RightFoot
      RightFoot RightToeBase
   end

# File created by Blade
# Date/Time:  Fri Jan 16 17:53:05 2015
# Frame Rate: 120.000 fps
#------------------------------------------------------
:FULLY-SPECIFIED
:DEGREES
941
root -3.922886 35.308251 -11.763967 -3.248032 0.255065 -8.438907
Spine 4.131891 -6.796817 8.918146
Head 2.226197 3.397190 -3.188632
LeftShoulder -23.181043 16.582163 -8.207194
LeftArm 24.320917 -25.527566 -69.387989
LeftForeArm 1.179739 -0.000000 126.975007
LeftHand 2.519015 -0.000000 14.092538
LeftHandThumb1 -26.253704 0.000000 33.147579
RightShoulder -6.370904 -6.950449 0.776203
RightArm 3.549800 -23.199611 71.749928
RightForeArm -17.922289 -0.000000 21.381684
RightHand 0.998196 0.000000 0.415931
RightHandThumb1 -24.326973 -0.000000 -32.862282
LeftUpLeg 11.156619 0.641353 -1.754194
LeftLeg -9.257529 -0.000000 0.000000
LeftFoot -14.110795 32.355547 -3.836628
LeftToeBase 20.717776 -0.000000 -0.000000
RightUpLeg 1.795705 11.186450 11.245946
RightLeg 10.111078 -0.000000 -0.000000
RightFoot -11.698583 -16.561402 8.144586
RightToeBase 2.344792 -0.000000 -0.000000
942
root -3.917353 35.308479 -11.779788 -3.189524 0.322423 -8.448229
Spine 4.096066 -6.846946 8.948887
Head 2.154836 3.390715 -3.139315
LeftShoulder -23.176708 16.582939 -8.177231
LeftArm 24.254801 -25.399184 -69.326499
LeftForeArm 1.084843 0.000000 127.050222
LeftHand 2.490102 -0.000000 14.045561
LeftHandThumb1 -26.253704 0.000000 33.147579
RightShoulder -6.395498 -6.942634 0.777892
RightArm 3.517720 -23.257806 71.718950
RightForeArm -17.984865 -0.000000 21.412926
RightHand 0.960879 0.000000 0.520313
RightHandThumb1 -24.326973 -0.000000 -32.862282
LeftUpLeg 11.062590 0.604566 -1.758888
LeftLeg -9.255847 -0.000000 0.000000
LeftFoot -14.052355 32.387734 -3.757456
LeftToeBase 20.708277 -0.000000 -0.000000
RightUpLeg 1.465760 11.893894 11.205048
RightLeg 10.909117 -0.000000 -0.000000
RightFoot -12.227824 -16.210408 8.664857
RightToeBase 0.395542 -0.000000 -0.000000
943
root -3.912893 35.308060 -11.792305 -3.163064 0.413652 -8.441705
Spine 4.092758 -6.918161 8.944376
Head 2.073742 3.366685 -3.075202
LeftShoulder -23.167612 16.569927 -8.129886
LeftArm 24.189849 -25.273117 -69.257763
LeftForeArm 0.986178 -0.000000 127.120251
LeftHand 2.506980 -0.000000 14.002082
LeftHandThumb1 -26.253704 0.000000 33.147579
RightShoulder -6.437194 -6.961699 0.803838
RightArm 3.542215 -23.422634 71.654817
RightForeArm -17.885053 -0.000000 21.388015
RightHand 0.956441 -0.000000 0.763345
RightHandThumb1 -24.326973 -0.000000 -32.862282
LeftUpLeg 11.006960 0.575065 -1.775746
LeftLeg -9.262561 -0.000000 0.000000
LeftFoot -14.008072 32.358018 -3.673189
LeftToeBase 20.747177 -0.000000 -0.000000
RightUpLeg 1.206518 12.750514 11.158534
RightLeg 11.685898 -0.000000 -0.000000
RightFoot -12.723661 -15.970248 9.174244
RightToeBase -1.655146 -0.000000 0.000000
944
root -3.907720 35.307968 -11.803765 -3.156264 0.510687 -8.432567
Spine 4.109030 -6.990464 8.946663
Head 1.995043 3.338790 -3.038325
LeftShoulder -23.133746 16.567976 -8.097677
LeftArm 24.124719 -25.185427 -69.188409
LeftForeArm 0.917755 -0.000000 127.186804
LeftHand 2.520890 -0.000000 13.989762
LeftHandThumb1 -26.253704 0.000000 33.147579
RightShoulder -6.470943 -7.068945 0.805453
RightArm 3.622261 -23.370644 71.616359
RightForeArm -18.263995 -0.000000 21.384551
RightHand 1.155202 -0.000000 1.362671
RightHandThumb1 -24.326973 -0.000000 -32.862282
LeftUpLeg 10.961349 0.566892 -1.795777
LeftLeg -9.252405 -0.000000 0.000000
LeftFoot -14.007185 32.335111 -3.646215
LeftToeBase 20.805280 -0.000000 -0.000000
RightUpLeg 0.936249 13.529565 11.105919
RightLeg 12.569929 -0.000000 -0.000000
RightFoot -13.307139 -15.670836 9.849183
RightToeBase -3.427776 -0.000000 0.000000
945
root -3.899452 35.307239 -11.816086 -3.138336 0.611278 -8.407621
Spine 4.112413 -7.090972 8.937615
Head 1.915866 3.325815 -3.009663
LeftShoulder -23.126141 16.564762 -8.071797
LeftArm 24.051078 -25.096510 -69.120107
LeftForeArm 0.866044 0.000000 127.252988
LeftHand 2.484641 -0.000000 14.028903
LeftHandThumb1 -26.253704 0.000000 33.147579
RightShoulder -6.473789 -7.072086 0.809173
RightArm 3.582466 -23.392322 71.608665
RightForeArm -18.335322 -0.000000 21.389613
RightHand 1.115254 0.000000 1.207424
RightHandThumb1 -24.326973 -0.000000 -32.862282
LeftUpLeg 10.924476 0.444322 -1.849546
LeftLeg -9.274331 -0.000000 0.000000
LeftFoot -13.958620 32.377510 -3.607339
LeftToeBase 20.842177 -0.000000 -0.000000
RightUpLeg 0.670775 14.442963 11.031390
RightLeg 13.472962 -0.000000 -0.000000
RightFoot -13.933909 -15.519360 10.199781
RightToeBase -4.551275 -0.000000 0.000000
